# xmcd
#
# Track frame offsets: 
#        150
#        11192
#        22721
#        35608
#        46780
#        59704
#        71662
#        81964
#        92252
#        105176
#        118177
#        129551
#        141277
#        153702
#        167283
#        180647
#
# Disc length: 2565 seconds
#
# Revision: 0
# Processed by: cddbd v1.5PL3 Copyright (c) Steve Scherf et al.
# Submitted via: ExactAudioCopy v0.95a3
#
DISCID=cc0a0310
DTITLE=Robert Johnson - Crossroad Blues
DYEAR=1900
DGENRE=Blues
TTITLE0=Love In Vain
TTITLE1=Me And The Devil Blues
TTITLE2=Rambling On My Mind (Take 2)
TTITLE3=Stones In My Passway
TTITLE4=Come On In My Kitchen (Take 2)
TTITLE5=When You Got A Good Friend
TTITLE6=Stop Breakin' Down Blues
TTITLE7=Milkcow's Calf Blues
TTITLE8=Preaching Blues (Up Jumped The Devil)
TTITLE9=32-20 Blues
TTITLE10=Cross Road Blues (Take 1)
TTITLE11=If I Had Possession Over Judgement Day
TTITLE12=Travelling Riverside Blues
TTITLE13=Terraplane Blues
TTITLE14=I Believe I'll Dust My Broom
TTITLE15=Hell Hound On My Trail
EXTD=
EXTT0=
EXTT1=
EXTT2=
EXTT3=
EXTT4=
EXTT5=
EXTT6=
EXTT7=
EXTT8=
EXTT9=
EXTT10=
EXTT11=
EXTT12=
EXTT13=
EXTT14=
EXTT15=
PLAYORDER=
